<svg width="2075" height="2335" xmlns="http://www.w3.org/2000/svg">

 <metadata id="imagebot_1915">image/svg+xml</metadata>
 <g id="imagebot_2">
  <title>imagebot_2</title>
  <g id="imagebot_58" transform="translate(1884.05, 418.324) matrix(8.54341, 0, 0, 8.3885, -954.377, -3582.22)">
   <path id="imagebot_1919" fill="#dc0000" stroke="#000000" stroke-width="7.55906" stroke-miterlimit="4" transform="matrix(0.26458333,0,0,0.26458333,0,229.26665)" d="M-104.1875,750.30078C-225.0052,750.59787 -306.44256,889.79205 -294.59961,971.70703C-268.45666,1152.5317 -93.85393,1253.4923 49.54297,1351.3535C192.93987,1253.4923 367.54259,1152.5317 393.68555,971.70703C410.08112,858.30261 247.69413,635.13453 49.54297,822.69727C-5.47843,770.616 -57.74322,750.18658 -104.1875,750.30078z"/>
   <path id="imagebot_1920" fill="none" stroke="#ffffff" stroke-width="3.95629" stroke-miterlimit="4" d="M-52.17281,506.71905L-14.42201,507.15808L-5.41329,490.0362L1.45049,519.01169L13.89109,474.67039L19.03894,526.91414L28.90562,499.25567L35.34042,519.88975L42.2042,504.96297L82.09993,505.40202"/>
   <path id="imagebot_1921" opacity="0.261" fill="#ffffff" stroke-width="2" stroke-miterlimit="4" d="M13.10824,446.93863L13.89105,586.06832C51.83148,560.17588 98.02856,533.46322 104.94555,485.62003C109.30513,455.46582 65.89028,395.97549 13.10824,446.93863z"/>
  </g>
 </g>
</svg>